<svg width="2687" height="1944" viewBox="0 0 2687 1944" fill="none" xmlns="http://www.w3.org/2000/svg">
<path d="M1314.63 1652.82H1363.66C1363.66 1652.82 1400.32 1650.53 1416.36 1608.82C1423.7 1605.62 1508.14 1569.41 1497.93 1510.75C1496.1 1500.21 1480.52 1502.51 1480.52 1502.51L1201.44 1539.17C1201.44 1539.17 1184.28 1545.12 1189.98 1557.96C1195.68 1570.79 1240.39 1602.87 1266.51 1611.57C1283.01 1651.9 1314.63 1652.82 1314.63 1652.82Z" fill="#2A2A2A" stroke="black"/>
<line x1="1487.26" y1="1452.55" x2="1198.23" y2="1488.89" stroke="#2A2A2A" stroke-width="32" stroke-linecap="round"/>
<line x1="1812.53" y1="1169.43" x2="1715.24" y2="1103.13" stroke="#2A2A2A" stroke-width="32" stroke-linecap="round"/>
<line x1="1882" y1="909.014" x2="1736.19" y2="909.014" stroke="#2A2A2A" stroke-width="32" stroke-linecap="round"/>
<line x1="1813.52" y1="651.355" x2="1748.91" y2="697.037" stroke="#2A2A2A" stroke-width="32" stroke-linecap="round"/>
<line x1="970.326" y1="718.031" x2="867.895" y2="651.197" stroke="#2A2A2A" stroke-width="32" stroke-linecap="round"/>
<line x1="946.309" y1="908.182" x2="805.085" y2="908.929" stroke="#2A2A2A" stroke-width="32" stroke-linecap="round"/>
<line x1="968.241" y1="1100.41" x2="869.917" y2="1168.37" stroke="#2A2A2A" stroke-width="32" stroke-linecap="round"/>
<path d="M1512.14 1058.91C1457.15 1105.65 1403.99 1145.98 1403.99 1266.04C1403.99 1272 1398.95 1274.29 1394.83 1274.29H1281.63C1277.51 1274.29 1273.39 1271.08 1273.39 1266.04C1273.39 1119.4 1296.76 1073.57 1403.99 986.958C1437.44 953.963 1477.77 923.259 1478.69 850.853C1477.77 776.615 1417.74 721.165 1342.58 721.165C1257.8 720.706 1200.98 785.78 1197.77 857.727C1197.77 861.852 1195.02 864.601 1189.52 864.601H1042.42C1038.75 864.601 1035.55 862.768 1036 857.727C1042.42 763.325 1145.53 596.517 1342.58 596.517C1501.14 601.558 1632.66 716.124 1629.91 857.727C1626.71 932.883 1616.17 974.585 1512.14 1058.91Z" fill="#2A2A2A"/>
<path d="M1117.12 640.968V528.235L969.556 463.162C962.682 459.954 963.14 446.664 969.556 442.54L1329.75 294.062C1336.63 291.313 1347.62 291.313 1352.67 294.062L1711.03 442.54C1720.19 446.206 1718.36 460.412 1711.03 463.62L1685.36 474.596V606.599C1702.32 615.306 1705.07 623.096 1705.07 638.219C1705.07 651.967 1701.4 655.633 1696.36 661.59L1704.61 759.201C1705.07 762.867 1702.78 765.616 1700.49 765.616H1646.87C1644.12 765.616 1641.83 762.867 1642.29 759.201L1650.54 661.59C1643.66 655.175 1640 647.384 1640 638.219C1640 624.471 1645.04 616.222 1659.24 606.599V485.768L1562.09 527.319V641.427C1507.56 588.268 1412.24 558.481 1342.58 558.481C1250.47 558.481 1174.4 593.309 1117.12 640.968Z" fill="#2A2A2A"/>
<path d="M1659.24 485.768L1685.36 474.596L1711.03 463.62C1718.36 460.412 1720.19 446.206 1711.03 442.54L1352.67 294.062C1347.62 291.313 1336.63 291.313 1329.75 294.062L969.556 442.54C963.14 446.664 962.682 459.954 969.556 463.162L1117.12 528.235V640.968C1174.4 593.309 1250.47 558.481 1342.58 558.481C1412.24 558.481 1507.56 588.268 1562.09 641.427V527.319L1659.24 485.768ZM1685.36 474.596V606.599C1702.32 615.306 1705.07 623.096 1705.07 638.219C1705.07 651.967 1701.4 655.633 1696.36 661.59L1704.61 759.201C1705.07 762.867 1702.78 765.616 1700.49 765.616H1646.87C1644.12 765.616 1641.83 762.867 1642.29 759.201L1650.54 661.59C1643.66 655.175 1640 647.384 1640 638.219C1640 624.471 1645.04 616.222 1659.24 606.599V485.768M1403.99 1266.04C1403.99 1145.98 1457.15 1105.65 1512.14 1058.91C1616.17 974.585 1626.71 932.883 1629.91 857.727C1632.66 716.124 1501.14 601.558 1342.58 596.517C1145.53 596.517 1042.42 763.325 1036 857.727C1035.55 862.768 1038.75 864.601 1042.42 864.601H1189.52C1195.02 864.601 1197.77 861.852 1197.77 857.727C1200.98 785.78 1257.8 720.706 1342.58 721.165C1417.74 721.165 1477.77 776.615 1478.69 850.853C1477.77 923.259 1437.44 953.963 1403.99 986.958C1296.76 1073.57 1273.39 1119.4 1273.39 1266.04C1273.39 1271.08 1277.51 1274.29 1281.63 1274.29H1394.83C1398.95 1274.29 1403.99 1272 1403.99 1266.04Z" stroke="black"/>
<path d="M1491.98 1399.85L1192.73 1438.81C1186.77 1439.72 1178.98 1438.81 1178.98 1425.52V1376.02C1178.98 1376.02 1156.07 1360.44 1156.07 1337.07C1152.86 1294 1166.61 1240.38 1093.75 1167.06C1093.75 1167.06 1036.92 1111.61 1014.92 1071.74C1007.13 1056.16 1030.05 1040.58 1041.5 1056.16C1053.88 1078.15 1099.24 1130.85 1114.37 1143.68C1121.39 1149.64 1190.9 1210.59 1185.86 1326.07C1187.23 1333.86 1191.36 1341.2 1201.9 1341.66H1485.56C1491.98 1341.2 1498.85 1335.7 1498.85 1326.07C1505.27 1288.5 1490.14 1236.71 1559.34 1158.81C1575.84 1140.02 1628.08 1095.57 1644.12 1054.32C1651 1042.41 1675.74 1054.32 1668.41 1072.2C1621.67 1158.81 1575.38 1158.81 1536.89 1250.46C1513.52 1310.49 1550.18 1339.36 1498.85 1379.23C1498.85 1379.23 1502.06 1397.56 1491.98 1399.85Z" fill="#2A2A2A" stroke="black"/>
</svg>
